# xmcd
#
# Track frame offsets: 
#        150
#        20743
#        41111
#        63173
#        91970
#        111454
#        130954
#        153860
#        180853
#        198415
#        215349
#        230537
#
# Disc length: 3337 seconds
#
# Revision: 0
# Processed by: cddbd v1.5.2PL0 Copyright (c) Steve Scherf et al.
# Submitted via: ExactAudioCopy v0.99pb5
#
DISCID=a00d070c
DTITLE=Vasco Faé and Adriano Grineberg - Ao Vivo No Photozofia
DYEAR=2007
DGENRE=Blues
TTITLE0=Baby Please Don't Go
TTITLE1=Easy-Rider Blues
TTITLE2=Jack O'Diamonds
TTITLE3=High Sheriff Blues
TTITLE4=Bad Luck Soul
TTITLE5=Desertos III
TTITLE6=Black Snake Moan
TTITLE7=Camarada Mandão
TTITLE8=Mr. PM
TTITLE9=I Got The Blues
TTITLE10=Desertos II
TTITLE11=How Long
EXTD=
EXTT0=
EXTT1=
EXTT2=
EXTT3=
EXTT4=
EXTT5=
EXTT6=
EXTT7=
EXTT8=
EXTT9=
EXTT10=
EXTT11=
PLAYORDER=
